HIERARCHY
ROOT joint_Root
{
	OFFSET 0.0 0.0 0.0
	CHANNELS 6 Xposition Yposition Zposition Zrotation Xrotation Yrotation 
	JOINT Hips
	{
		OFFSET 4.5925 91.4895 -427.239
		CHANNELS 6 Xposition Yposition Zposition Zrotation Xrotation Yrotation 
		JOINT Spine
		{
			OFFSET 15.7357 0.0 0.0
			CHANNELS 6 Xposition Yposition Zposition Zrotation Xrotation Yrotation 
			JOINT Chest
			{
				OFFSET 8.98455 -0.406207 0.0
				CHANNELS 6 Xposition Yposition Zposition Zrotation Xrotation Yrotation 
				JOINT Neck
				{
					OFFSET 16.3773 0.0 0.0
					CHANNELS 6 Xposition Yposition Zposition Zrotation Xrotation Yrotation 
					JOINT Head
					{
						OFFSET 6.45672 0.0 0.0
						CHANNELS 6 Xposition Yposition Zposition Zrotation Xrotation Yrotation 
						End Site
						{
							OFFSET 0.0 0.0 0.0
						}
					}
				}
				JOINT Shoulder_L
				{
					OFFSET 12.9942 -0.242716 4.98039
					CHANNELS 6 Xposition Yposition Zposition Zrotation Xrotation Yrotation 
					JOINT UpperArm_L
					{
						OFFSET 5.34809 0.0 0.0
						CHANNELS 6 Xposition Yposition Zposition Zrotation Xrotation Yrotation 
						JOINT LowerArm_L
						{
							OFFSET 24.3286 1.87007e-05 0.0
							CHANNELS 6 Xposition Yposition Zposition Zrotation Xrotation Yrotation 
							JOINT Hand_L
							{
								OFFSET 22.2916 0.0 0.0
								CHANNELS 6 Xposition Yposition Zposition Zrotation Xrotation Yrotation 
								End Site
								{
									OFFSET 0.0 0.0 0.0
								}
							}
						}
					}
				}
				JOINT Shoulder_R
				{
					OFFSET 12.9945 -0.242716 -4.98039
					CHANNELS 6 Xposition Yposition Zposition Zrotation Xrotation Yrotation 
					JOINT UpperArm_R
					{
						OFFSET -5.34813 0.0 0.0
						CHANNELS 6 Xposition Yposition Zposition Zrotation Xrotation Yrotation 
						JOINT LowerArm_R
						{
							OFFSET -24.3289 0.000322201 0.0
							CHANNELS 6 Xposition Yposition Zposition Zrotation Xrotation Yrotation 
							JOINT Hand_R
							{
								OFFSET -22.2915 -0.000108084 0.0
								CHANNELS 6 Xposition Yposition Zposition Zrotation Xrotation Yrotation 
								End Site
								{
									OFFSET 0.0 0.0 0.0
								}
							}
						}
					}
				}
			}
		}
		JOINT UpperLeg_L
		{
			OFFSET -2.19248 -6.46944 0.0
			CHANNELS 6 Xposition Yposition Zposition Zrotation Xrotation Yrotation 
			JOINT LowerLeg_L
			{
				OFFSET 39.0811 0.0 -1.23785e-05
				CHANNELS 6 Xposition Yposition Zposition Zrotation Xrotation Yrotation 
				JOINT Foot_L
				{
					OFFSET 40.9854 0.0 -1.26872e-05
					CHANNELS 6 Xposition Yposition Zposition Zrotation Xrotation Yrotation 
					JOINT Toes_L
					{
						OFFSET 11.7543 0.0 0.0
						CHANNELS 6 Xposition Yposition Zposition Zrotation Xrotation Yrotation 
						End Site
						{
							OFFSET 0.0 0.0 0.0
						}
					}
				}
			}
		}
		JOINT UpperLeg_R
		{
			OFFSET -2.19251 6.46944 0.0
			CHANNELS 6 Xposition Yposition Zposition Zrotation Xrotation Yrotation 
			JOINT LowerLeg_R
			{
				OFFSET -39.0811 -0.00228153 -0.0401928
				CHANNELS 6 Xposition Yposition Zposition Zrotation Xrotation Yrotation 
				JOINT Foot_R
				{
					OFFSET -40.9854 0.0 0.0
					CHANNELS 6 Xposition Yposition Zposition Zrotation Xrotation Yrotation 
					JOINT Toes_R
					{
						OFFSET -11.7543 0.0 0.0
						CHANNELS 6 Xposition Yposition Zposition Zrotation Xrotation Yrotation 
						End Site
						{
							OFFSET 0.0 0.0 0.0
						}
					}
				}
			}
		}
	}
}
MOTION
Frames:	8
Frame Time:	0.0333333
0.000000 0.000000 0.000000 0.000000 0.000000 -0.000000 -3.322780 91.409100 -0.969657 88.527600 9.259360 5.007690 15.735700 0.000005 -0.000001 95.479000 85.882200 -98.299300 8.984550 -0.406207 -0.000000 0.462021 0.965700 -5.640640 16.377300 -0.000001 -0.000001 5.222820 -7.122180 7.415230 6.456720 -0.000001 -0.000000 -2.430520 -4.117530 -1.531350 12.994200 -0.242716 4.980390 -91.340400 3.511770 -69.093000 5.348090 -0.000007 -0.000001 -64.095500 12.465600 -4.870050 24.328600 0.000019 0.000005 6.215120 18.851900 -18.625100 22.291600 -0.000001 0.000005 13.489800 5.144660 4.070780 12.994500 -0.242716 -4.980390 94.352700 -10.254300 -66.849800 -5.348130 -0.000001 -0.000004 -51.993700 -66.644400 -94.561700 -24.328900 0.000322 -0.000009 -4.015080 -3.530450 -48.729500 -22.291500 -0.000108 -0.000004 21.503000 5.583690 -10.411800 -2.192480 -6.469440 -0.000000 -173.334000 -6.671400 -7.334740 39.081100 -0.000007 -0.000012 -0.139761 0.257943 28.450200 40.985400 -0.000006 -0.000013 -0.491121 11.612000 -66.651700 11.754300 -0.000000 0.000003 -0.000070 -0.000755 -16.606700 -2.192510 6.469440 -0.000001 179.240000 24.361500 178.012000 -39.081100 -0.002282 -0.040193 -0.007727 0.022519 26.110400 -40.985400 0.000008 0.000006 6.770910 7.164300 -70.080700 -11.754300 -0.000006 -0.000006 -0.003105 -0.041786 -18.272500
0.000000 0.000000 0.000000 0.000000 0.000000 -0.000000 -3.135820 91.448000 -1.081530 88.573300 8.577580 4.933750 15.735700 0.000005 -0.000001 95.343200 85.857900 -98.069000 8.984550 -0.406207 -0.000000 0.510592 0.943627 -5.451960 16.377300 -0.000001 -0.000001 4.964630 -6.855010 7.319640 6.456720 -0.000001 -0.000000 -2.334910 -3.782930 -1.418160 12.994200 -0.242716 4.980390 -91.392800 3.634590 -69.016600 5.348090 -0.000007 -0.000001 -64.204600 13.722800 -4.756670 24.328600 0.000019 0.000005 6.267760 18.900400 -18.729900 22.291600 -0.000001 0.000005 13.412600 5.146530 4.026430 12.994500 -0.242716 -4.980390 94.123300 -9.879250 -67.209600 -5.348130 -0.000001 -0.000004 -49.963200 -66.290300 -90.921400 -24.328900 0.000322 -0.000009 -4.561260 -3.629770 -51.556500 -22.291500 -0.000108 -0.000004 21.561700 5.573580 -9.872750 -2.192480 -6.469440 -0.000000 -173.517000 -6.983080 -7.246920 39.081100 -0.000007 -0.000012 -0.137645 0.255804 28.284300 40.985400 -0.000006 -0.000013 -0.451147 11.204100 -66.588100 11.754300 -0.000000 0.000003 -0.000072 -0.000773 -16.607400 -2.192510 6.469440 -0.000001 179.088000 24.093900 177.873000 -39.081100 -0.002282 -0.040193 -0.013923 0.035281 26.033600 -40.985400 0.000008 0.000006 6.636650 7.639880 -69.900000 -11.754300 -0.000006 -0.000006 -0.003148 -0.042267 -18.292100
0.000000 0.000000 0.000000 0.000000 0.000000 -0.000000 -2.912020 91.492800 -1.219280 88.611500 7.719140 4.861930 15.735700 0.000005 -0.000001 95.434700 85.808900 -98.071700 8.984550 -0.406207 -0.000000 0.606105 0.958248 -5.275200 16.377300 -0.000001 -0.000001 4.660650 -6.598460 7.194410 6.456720 -0.000001 -0.000000 -2.428450 -3.448120 -1.316250 12.994200 -0.242716 4.980390 -91.439100 3.750600 -68.990600 5.348090 -0.000007 -0.000001 -64.297200 15.541200 -4.822220 24.328600 0.000019 0.000005 6.314190 19.014300 -18.758800 22.291600 -0.000001 0.000005 13.272100 5.144970 4.063180 12.994500 -0.242716 -4.980390 93.789600 -9.312840 -67.740500 -5.348130 -0.000001 -0.000004 -47.377500 -65.528500 -85.725800 -24.328900 0.000322 -0.000009 -5.350110 -3.615230 -56.037300 -22.291500 -0.000108 -0.000004 21.503000 5.561010 -9.237660 -2.192480 -6.469440 -0.000000 -173.705000 -7.476840 -7.142790 39.081100 -0.000007 -0.000012 -0.134635 0.252126 28.102500 40.985400 -0.000006 -0.000013 -0.383756 10.799300 -66.511300 11.754300 -0.000000 0.000003 -0.000064 -0.000705 -16.604800 -2.192510 6.469440 -0.000001 178.925000 23.694800 177.720000 -39.081100 -0.002282 -0.040193 -0.018490 0.044827 25.934200 -40.985400 0.000008 0.000006 6.488110 8.210940 -69.680800 -11.754300 -0.000006 -0.000006 -0.003184 -0.042668 -18.308400
0.000000 0.000000 0.000000 0.000000 0.000000 -0.000000 -2.667920 91.534300 -1.377200 88.660300 6.785600 4.723290 15.735700 0.000005 -0.000001 94.877500 85.780600 -97.437000 8.984550 -0.406207 -0.000000 0.667117 0.875714 -5.120180 16.377300 -0.000001 -0.000001 4.252770 -6.311660 6.933350 6.456720 -0.000001 -0.000000 -2.440210 -3.198010 -1.084920 12.994200 -0.242716 4.980390 -91.491300 3.876380 -68.939200 5.348090 -0.000007 -0.000001 -64.430100 17.464600 -4.988410 24.328600 0.000019 0.000005 6.378970 19.290400 -18.696300 22.291600 -0.000001 0.000005 13.014100 5.143950 4.087840 12.994500 -0.242716 -4.980390 93.340500 -8.496820 -68.444800 -5.348130 -0.000001 -0.000004 -44.525300 -63.979800 -79.278900 -24.328900 0.000322 -0.000009 -6.399100 -3.385570 -62.219500 -22.291500 -0.000108 -0.000004 21.738000 5.549890 -8.702890 -2.192480 -6.469440 -0.000000 -173.920000 -8.102980 -7.114460 39.081100 -0.000007 -0.000012 -0.130960 0.246929 27.939600 40.985400 -0.000006 -0.000013 -0.286092 10.427700 -66.441500 11.754300 -0.000000 0.000003 -0.000067 -0.000729 -16.605700 -2.192510 6.469440 -0.000001 178.773000 23.252900 177.439000 -39.081100 -0.002282 -0.040193 -0.027434 0.063405 25.868200 -40.985400 0.000008 0.000006 6.224550 8.789470 -69.418400 -11.754300 -0.000006 -0.000006 -0.003177 -0.042589 -18.305200
0.000000 0.000000 0.000000 0.000000 0.000000 -0.000000 -2.403730 91.570200 -1.535740 88.702200 5.770750 4.633070 15.735700 0.000005 -0.000001 93.934600 85.753100 -96.412600 8.984550 -0.406207 -0.000000 0.728610 0.734694 -4.956910 16.377300 -0.000001 -0.000001 3.906390 -6.019180 6.555180 6.456720 -0.000001 -0.000000 -2.455000 -2.947300 -0.852472 12.994200 -0.242716 4.980390 -91.548000 4.029090 -68.962800 5.348090 -0.000007 -0.000001 -64.629600 19.242600 -5.094040 24.328600 0.000019 0.000005 6.363430 19.341500 -18.609400 22.291600 -0.000001 0.000005 12.700600 5.147000 4.014900 12.994500 -0.242716 -4.980390 92.837500 -7.583590 -69.416500 -5.348130 -0.000001 -0.000004 -41.260400 -61.431700 -71.172700 -24.328900 0.000322 -0.000009 -7.583250 -2.771830 -70.030200 -22.291500 -0.000108 -0.000004 22.515200 5.539900 -8.241790 -2.192480 -6.469440 -0.000000 -174.120000 -8.839310 -7.043910 39.081100 -0.000007 -0.000012 -0.127984 0.242658 27.808500 40.985400 -0.000006 -0.000013 -0.168576 10.083000 -66.396100 11.754300 -0.000000 0.000003 -0.000065 -0.000714 -16.605200 -2.192510 6.469440 -0.000001 178.601000 22.688600 177.190000 -39.081100 -0.002282 -0.040193 -0.037093 0.083507 25.819200 -40.985400 0.000008 0.000006 5.921920 9.389140 -69.148100 -11.754300 -0.000006 -0.000006 -0.003226 -0.043129 -18.327200
0.000000 0.000000 0.000000 0.000000 0.000000 -0.000000 -2.120140 91.600400 -1.678710 88.746600 4.657120 4.566300 15.735700 0.000005 -0.000001 92.559500 85.722600 -94.959400 8.984550 -0.406207 -0.000000 0.795909 0.527762 -4.799760 16.377300 -0.000001 -0.000001 3.540940 -5.700130 6.107820 6.456720 -0.000001 -0.000000 -2.476830 -2.663340 -0.626118 12.994200 -0.242716 4.980390 -91.628100 4.236200 -68.954300 5.348090 -0.000007 -0.000001 -64.895600 20.666000 -5.168810 24.328600 0.000019 0.000005 6.410130 19.433100 -18.658500 22.291600 -0.000001 0.000005 12.485700 5.146710 4.021680 12.994500 -0.242716 -4.980390 92.231900 -6.446470 -70.858900 -5.348130 -0.000001 -0.000004 -37.655900 -57.787700 -61.814100 -24.328900 0.000322 -0.000009 -8.650880 -1.778960 -78.462900 -22.291500 -0.000108 -0.000004 23.738700 5.539550 -8.220790 -2.192480 -6.469440 -0.000000 -174.352000 -9.415070 -6.943230 39.081100 -0.000007 -0.000012 -0.125353 0.238768 27.699700 40.985400 -0.000006 -0.000013 -0.090708 9.512170 -66.385800 11.754300 -0.000000 0.000003 -0.000062 -0.000678 -16.603800 -2.192510 6.469440 -0.000001 178.390000 22.133000 176.961000 -39.081100 -0.002282 -0.040193 -0.050069 0.110497 25.784600 -40.985400 0.000008 0.000006 5.577780 10.073400 -68.876300 -11.754300 -0.000006 -0.000006 -0.003254 -0.043443 -18.339900
0.000000 0.000000 0.000000 0.000000 0.000000 -0.000000 -1.843020 91.619700 -1.822620 88.780600 3.546800 4.554090 15.735700 0.000005 -0.000001 91.118000 85.647600 -93.407300 8.984550 -0.406207 -0.000000 0.947391 0.305901 -4.577490 16.377300 -0.000001 -0.000001 3.000790 -5.231690 5.397190 6.456720 -0.000001 -0.000000 -2.536900 -2.525650 -0.404850 12.994200 -0.242716 4.980390 -91.749200 4.553260 -68.959100 5.348090 -0.000007 -0.000001 -65.130600 21.878400 -5.449380 24.328600 0.000019 0.000005 6.316520 19.258100 -18.552200 22.291600 -0.000001 0.000005 12.206600 5.153000 3.871250 12.994500 -0.242716 -4.980390 91.540200 -4.806440 -72.212500 -5.348130 -0.000001 -0.000004 -34.720300 -52.553000 -52.981100 -24.328900 0.000322 -0.000009 -10.048200 -0.674687 -86.188500 -22.291500 -0.000108 -0.000004 24.723100 5.549590 -8.684030 -2.192480 -6.469440 -0.000000 -174.581000 -9.824780 -6.831200 39.081100 -0.000007 -0.000012 -0.122440 0.233696 27.651500 40.985400 -0.000006 -0.000013 -0.048072 8.797770 -66.404200 11.754300 -0.000000 0.000003 -0.000066 -0.000721 -16.605400 -2.192510 6.469440 -0.000001 178.138000 21.679000 176.774000 -39.081100 -0.002282 -0.040193 -0.066056 0.143657 25.774100 -40.985400 0.000008 0.000006 5.136820 10.898000 -68.589900 -11.754300 -0.000006 -0.000006 -0.003284 -0.043776 -18.353500
0.000000 0.000000 0.000000 0.000000 0.000000 -0.000000 -1.578730 91.620700 -1.980940 88.786900 2.452230 4.592100 15.735700 0.000005 -0.000001 89.708500 85.527200 -91.846800 8.984550 -0.406207 -0.000000 1.184440 0.077226 -4.273920 16.377300 -0.000001 -0.000001 2.339840 -4.677550 4.544700 6.456720 -0.000001 -0.000000 -2.727920 -2.389360 -0.317448 12.994200 -0.242716 4.980390 -91.879500 4.880600 -68.908800 5.348090 -0.000007 -0.000001 -65.355900 23.185700 -5.884390 24.328600 0.000019 0.000005 6.289200 19.019900 -18.684100 22.291600 -0.000001 0.000005 11.955000 5.151970 3.896170 12.994500 -0.242716 -4.980390 90.776200 -2.652390 -73.691400 -5.348130 -0.000001 -0.000004 -31.837000 -45.736400 -44.347000 -24.328900 0.000322 -0.000009 -11.538200 0.439551 -92.145500 -22.291500 -0.000108 -0.000004 25.557700 5.560190 -9.195000 -2.192480 -6.469440 -0.000000 -174.742000 -10.344200 -6.749620 39.081100 -0.000007 -0.000012 -0.121395 0.231018 27.721000 40.985400 -0.000006 -0.000013 0.016339 8.219160 -66.463000 11.754300 -0.000000 0.000003 -0.000063 -0.000693 -16.604400 -2.192510 6.469440 -0.000001 177.931000 21.205800 176.574000 -39.081100 -0.002282 -0.040193 -0.080332 0.172632 25.850800 -40.985400 0.000008 0.000006 4.736970 11.640200 -68.336000 -11.754300 -0.000006 -0.000006 -0.003353 -0.044537 -18.384500
